<?xml version="1.0" encoding="UTF-8"?>
<svg width="55px" height="50px" viewBox="0 0 55 50" version="1.1" xmlns="http://www.w3.org/2000/svg" xmlns:xlink="http://www.w3.org/1999/xlink">
    <title>account_circle-24px</title>
    <g id="Home" stroke="none" stroke-width="1" fill="none" fill-rule="evenodd">
        <g id="HOME" transform="translate(-190.000000, -696.000000)" fill="#FFFFFF" fill-rule="nonzero">
            <g id="account_circle-24px" transform="translate(190.000000, 696.000000)">
                <path d="M49.9108734,0 L4.99108734,0 C2.2459893,0 0,2.25 0,5 L0,35 C0,37.75 2.2459893,40 4.99108734,40 L22.459893,40 L22.459893,45 L17.4688057,45 L17.4688057,50 L37.4331551,50 L37.4331551,45 L32.4420677,45 L32.4420677,40 L49.9108734,40 C52.6559715,40 54.9019608,37.75 54.9019608,35 L54.9019608,5 C54.9019608,2.25 52.6559715,0 49.9108734,0 Z M49.9108734,35 L4.99108734,35 L4.99108734,5 L49.9108734,5 L49.9108734,35 Z" id="Shape-Copy-2"></path>
                <path d="M27,11 C21.48,11 17,15.48 17,21 C17,26.52 21.48,31 27,31 C32.52,31 37,26.52 37,21 C37,15.48 32.52,11 27,11 Z M27,14 C28.66,14 30,15.34 30,17 C30,18.66 28.66,20 27,20 C25.34,20 24,18.66 24,17 C24,15.34 25.34,14 27,14 Z M27,28.2 C24.5,28.2 22.29,26.92 21,24.98 C21.03,22.99 25,21.9 27,21.9 C28.99,21.9 32.97,22.99 33,24.98 C31.71,26.92 29.5,28.2 27,28.2 Z" id="Shape"></path>
            </g>
        </g>
    </g>
</svg>