<?xml version="1.0" encoding="UTF-8"?>
<svg width="50px" height="50px" viewBox="0 0 50 50" version="1.1" xmlns="http://www.w3.org/2000/svg" xmlns:xlink="http://www.w3.org/1999/xlink">
    <title>check_circle_outline-24px copy</title>
    <g id="Home" stroke="none" stroke-width="1" fill="none" fill-rule="evenodd">
        <g id="HOME" transform="translate(-992.000000, -696.000000)" fill="#FFFFFF" fill-rule="nonzero">
            <g id="check_circle_outline-24px-copy" transform="translate(992.000000, 696.000000)">
                <path d="M36.475,13.95 L20,30.425 L11.025,21.475 L7.5,25 L20,37.5 L40,17.5 L36.475,13.95 Z M25,0 C11.2,0 0,11.2 0,25 C0,38.8 11.2,50 25,50 C38.8,50 50,38.8 50,25 C50,11.2 38.8,0 25,0 Z M25,45 C13.95,45 5,36.05 5,25 C5,13.95 13.95,5 25,5 C36.05,5 45,13.95 45,25 C45,36.05 36.05,45 25,45 Z" id="Shape"></path>
            </g>
        </g>
    </g>
</svg>