<svg xmlns="http://www.w3.org/2000/svg" xmlns:xlink="http://www.w3.org/1999/xlink" width="194.533" height="69.782" viewBox="0 0 194.533 69.782">
  <defs>
    <clipPath id="clip-path">
      <path id="Clip_2" data-name="Clip 2" d="M0,0H33.723V16.915H0Z" transform="translate(0.18 0.218)" fill="none"/>
    </clipPath>
    <clipPath id="clip-path-2">
      <path id="Clip_5" data-name="Clip 5" d="M0,0H34.7V34.1H0Z" transform="translate(0 0.524)" fill="none"/>
    </clipPath>
    <clipPath id="clip-path-3">
      <path id="Clip_34" data-name="Clip 34" d="M0,0H13.508V17.606H0Z" transform="translate(0.016 0.435)" fill="none"/>
    </clipPath>
  </defs>
  <g id="Group_36" data-name="Group 36" transform="translate(0 -0.218)">
    <g id="Group_3" data-name="Group 3" transform="translate(3.498)">
      <path id="Clip_2-2" data-name="Clip 2" d="M0,0H33.723V16.915H0Z" transform="translate(0.18 0.218)" fill="none"/>
      <g id="Group_3-2" data-name="Group 3" clip-path="url(#clip-path)">
        <path id="Fill_1" data-name="Fill 1" d="M1.832,14.317.4,10.657a3.365,3.365,0,0,1-.1-3A3.539,3.539,0,0,1,2.772,5.778L27.722.058a4.007,4.007,0,0,1,3.057.71A3.786,3.786,0,0,1,32.32,3.447l1.4,13.163-3.043.3-1.4-13.163a.872.872,0,0,0-.346-.62.9.9,0,0,0-.652-.157L3.475,8.664a.553.553,0,0,0-.39.237.539.539,0,0,0,.07.455l.049.1,1.178,2.747Z" transform="translate(0.18 0.218)" fill="#fff"/>
      </g>
    </g>
    <g id="Group_6" data-name="Group 6" transform="translate(0 1.75)">
      <path id="Clip_5-2" data-name="Clip 5" d="M0,0H34.7V34.1H0Z" transform="translate(0 0.524)" fill="none"/>
      <g id="Group_6-2" data-name="Group 6" clip-path="url(#clip-path-2)">
        <path id="Fill_4" data-name="Fill 4" d="M13.665,34.1.89,17.613a3.6,3.6,0,0,1,.938-5.508l.084-.047L24.848.335a3.78,3.78,0,0,1,5.177,2.323L34.7,15.194l-2.83,1.056-4.693-12.6a.875.875,0,0,0-.453-.572.772.772,0,0,0-.622,0L3.34,14.723a.642.642,0,0,0-.313.423.667.667,0,0,0,.187.536l.042.052L17.5,34.1Z" transform="translate(0 0.524)" fill="#fff"/>
      </g>
    </g>
    <path id="Fill_7" data-name="Fill 7" d="M0,.438H13.991" transform="translate(14.865 35)" fill="#fff"/>
    <path id="Fill_9" data-name="Fill 9" d="M33.627,55.125H12.605a5.594,5.594,0,0,1-5.658-5.513,5.393,5.393,0,0,1,.777-2.759A5.687,5.687,0,0,1,2.71,41.326a5.412,5.412,0,0,1,.981-3.091A5.546,5.546,0,0,1,4.01,27.68a5.146,5.146,0,0,1-.741-2.647v-.575a5.27,5.27,0,0,1,5.357-5.165H25.8L24.152,7.43C23.6,3.631,25.339.693,28.487.119A7.018,7.018,0,0,1,29.736,0a5.4,5.4,0,0,1,3.292,1.105,6.959,6.959,0,0,1,2.706,4.65l1.057,7.712c.3,1.831,3.97,6.46,6.4,9.523l.105.133.095.12.068.137a9.8,9.8,0,0,1,.459,2.058c.025.156.047.3.068.422h1.12a5.3,5.3,0,0,1,4.12,1.787,6.5,6.5,0,0,1,1.492,4.307V45.331c0,2.459-1.495,6.118-5.612,6.118H42.974a13.552,13.552,0,0,1-4.651,2.7A14.9,14.9,0,0,1,33.627,55.125ZM12.605,46.893a2.695,2.695,0,1,0,0,5.383H33.627c2.231,0,6.207-1.466,7.666-3.178l.424-.5h3.389c.831,0,2.778,0,2.778-3.27V31.954c0-2.032-1.039-3.245-2.778-3.245H41.462l-.127-1.282a23.332,23.332,0,0,0-.374-2.676c-.14-.178-.326-.409-.541-.676l0,0c-1.788-2.224-5.976-7.431-6.425-10.163L32.931,6.17a4.153,4.153,0,0,0-1.556-2.75,2.647,2.647,0,0,0-1.646-.57,4.112,4.112,0,0,0-.737.073C27.1,3.268,26.7,5.264,26.956,7.017l1.723,12.363a3.865,3.865,0,0,1-.195,2.31.9.9,0,0,1-.6.4,8.908,8.908,0,0,1-1.18.052c-.257,0-.454,0-.456,0H8.627A2.429,2.429,0,0,0,6.1,24.458v.575a2.492,2.492,0,0,0,2.523,2.39h5.168a1.291,1.291,0,0,1,1.334,1.239v.363a1.292,1.292,0,0,1-1.334,1.243l-8.136.007a2.865,2.865,0,0,0-2.825,2.757,2.812,2.812,0,0,0,2.825,2.722h8.048l.088,0A1.293,1.293,0,0,1,15.128,37v.362a1.293,1.293,0,0,1-1.334,1.244l-5.426,0a2.723,2.723,0,1,0,0,5.441l5.426,0a1.292,1.292,0,0,1,1.334,1.243v.363a1.293,1.293,0,0,1-1.334,1.245Z" transform="translate(6.121 14.875)" fill="#fff"/>
    <path id="Fill_11" data-name="Fill 11" d="M0,10.011C0,3.719,3.144,0,8.564,0A8.263,8.263,0,0,1,14.85,2.507a6.15,6.15,0,0,1,1.764,3.586A1.167,1.167,0,0,1,15.4,7.388c-.626,0-1.027-.266-1.476-1.145-1.283-2.474-2.935-3.619-5.245-3.619-3.769,0-5.869,2.689-5.869,7.4V13.6c0,4.765,2.1,7.421,5.869,7.421a5.627,5.627,0,0,0,5.309-3.553c.449-.831.785-1.145,1.378-1.145a1.175,1.175,0,0,1,1.251,1.295,6.027,6.027,0,0,1-1.812,3.62,8.333,8.333,0,0,1-6.239,2.39C3.128,23.625,0,19.972,0,13.614Z" transform="translate(71.704 14.875)" fill="#fff"/>
    <path id="Fill_13" data-name="Fill 13" d="M1.457,17.5A1.387,1.387,0,0,1,0,15.941V1.672A1.416,1.416,0,0,1,1.474.114,1.361,1.361,0,0,1,2.9,1.639v.649h.084A4.444,4.444,0,0,1,6.914,0,2.414,2.414,0,0,1,8.169.292a1.134,1.134,0,0,1,.575,1.023A1.09,1.09,0,0,1,8.169,2.37,2.8,2.8,0,0,1,6.88,2.6C4.27,2.614,2.914,3.96,2.914,6.769v9.172A1.379,1.379,0,0,1,1.457,17.5" transform="translate(91.816 21)" fill="#fff"/>
    <path id="Fill_15" data-name="Fill 15" d="M7.368,17.5a7.4,7.4,0,0,1-5.393-1.98A7.451,7.451,0,0,1,0,10.11V7.438C0,3.058,2.916,0,7.092,0a6.826,6.826,0,0,1,4.97,1.992A7.251,7.251,0,0,1,13.991,7.1c0,1.845-.327,2.35-1.519,2.35H2.811v.886a4.894,4.894,0,0,0,1.258,3.482A4.652,4.652,0,0,0,7.5,15.1a4.747,4.747,0,0,0,3.457-1.3c.888-.82,1.074-.933,1.535-.933a1.107,1.107,0,0,1,1.083,1.174,2.537,2.537,0,0,1-.792,1.61A7.613,7.613,0,0,1,7.368,17.5ZM7.125,2.382A4.08,4.08,0,0,0,4,3.7,5.026,5.026,0,0,0,2.811,7.148V7.2h8.418V7.148a5.235,5.235,0,0,0-1.113-3.475A3.811,3.811,0,0,0,7.125,2.382Z" transform="translate(103.184 21)" fill="#fff"/>
    <path id="Fill_17" data-name="Fill 17" d="M6.727,23.625a6.545,6.545,0,0,1-4.9-1.934A7.283,7.283,0,0,1,0,16.554v-3.4A7.241,7.241,0,0,1,1.866,8,6.66,6.66,0,0,1,6.81,6.068,6.643,6.643,0,0,1,10,6.81a4.087,4.087,0,0,1,1.878,2.041h.134v-7.3A1.36,1.36,0,0,1,13.437,0a1.36,1.36,0,0,1,1.428,1.553V21.959c0,1-.484,1.552-1.362,1.552-.862,0-1.346-.54-1.363-1.521V20.664h-.149C11.493,22.379,9.278,23.625,6.727,23.625ZM7.309,8.5c-2.756,0-4.4,1.972-4.4,5.275v2.153A5.909,5.909,0,0,0,4.092,19.8,4.19,4.19,0,0,0,7.407,21.2a4.424,4.424,0,0,0,3.354-1.345,5.238,5.238,0,0,0,1.248-3.639V13.155A4.527,4.527,0,0,0,7.309,8.5Z" transform="translate(120.673 14.875)" fill="#fff"/>
    <path id="Fill_19" data-name="Fill 19" d="M1.733,23.625c-.836,0-1.355-.607-1.355-1.584V7.539c0-.991.512-1.583,1.371-1.583.839,0,1.339.592,1.339,1.583v14.5C3.088,23.033,2.582,23.625,1.733,23.625ZM1.717,3.6A1.749,1.749,0,0,1,0,1.781,1.712,1.712,0,0,1,1.717,0,1.722,1.722,0,0,1,3.5,1.781,1.759,1.759,0,0,1,1.717,3.6Z" transform="translate(139.91 14.875)" fill="#fff"/>
    <path id="Fill_21" data-name="Fill 21" d="M0,21.161V2.449C0,.7.739,0,2.585,0h9.1a1.286,1.286,0,0,1,1.429,1.307,1.262,1.262,0,0,1-1.429,1.273H2.81v7.677h8.044a1.3,1.3,0,1,1,0,2.581H2.81v8.323A1.4,1.4,0,0,1,1.4,22.75c-.867,0-1.4-.612-1.4-1.589" transform="translate(72.578 43.75)" fill="#fff"/>
    <path id="Fill_23" data-name="Fill 23" d="M7.441,17.5a7.492,7.492,0,0,1-5.32-1.954A7.414,7.414,0,0,1,0,10.03V7.454a7.389,7.389,0,0,1,2.122-5.5A7.5,7.5,0,0,1,7.441,0a7.471,7.471,0,0,1,5.305,1.952,7.4,7.4,0,0,1,2.119,5.5V10.03a7.421,7.421,0,0,1-2.119,5.516A7.465,7.465,0,0,1,7.441,17.5Zm0-15.085c-2.78,0-4.577,2.073-4.577,5.281V9.788A5.841,5.841,0,0,0,4.1,13.67,4.256,4.256,0,0,0,7.441,15.1c2.8,0,4.544-2.036,4.544-5.313V7.7A5.816,5.816,0,0,0,10.763,3.86,4.212,4.212,0,0,0,7.441,2.415Z" transform="translate(88.318 48.125)" fill="#fff"/>
    <path id="Fill_25" data-name="Fill 25" d="M1.457,17.5A1.387,1.387,0,0,1,0,15.941V1.672A1.415,1.415,0,0,1,1.474.114,1.361,1.361,0,0,1,2.9,1.639v.649h.085A4.443,4.443,0,0,1,6.914,0,2.409,2.409,0,0,1,8.168.292a1.133,1.133,0,0,1,.576,1.023A1.088,1.088,0,0,1,8.168,2.37,2.787,2.787,0,0,1,6.88,2.6c-2.61.016-3.965,1.364-3.965,4.172v9.172A1.38,1.38,0,0,1,1.457,17.5" transform="translate(106.682 48.125)" fill="#fff"/>
    <path id="Fill_27" data-name="Fill 27" d="M22.192,17.5a1.371,1.371,0,0,1-1.418-1.559V6.055a3.323,3.323,0,0,0-3.66-3.6,3.8,3.8,0,0,0-3.892,3.977v9.513A1.371,1.371,0,0,1,11.8,17.5c-.89,0-1.4-.584-1.4-1.559V6.168A3.487,3.487,0,0,0,6.661,2.451,3.724,3.724,0,0,0,2.836,6.4v9.546A1.371,1.371,0,0,1,1.418,17.5,1.371,1.371,0,0,1,0,15.941V1.672A1.379,1.379,0,0,1,1.418.114a1.362,1.362,0,0,1,1.4,1.542V2.987h.149C3.61,1.087,5.325,0,7.666,0A4.711,4.711,0,0,1,12.5,3.214h.116A5.38,5.38,0,0,1,17.889,0c3.627,0,5.721,1.948,5.721,5.325V15.941A1.371,1.371,0,0,1,22.192,17.5" transform="translate(118.924 48.125)" fill="#fff"/>
    <path id="Fill_29" data-name="Fill 29" d="M7.44,17.5a7.491,7.491,0,0,1-5.319-1.954A7.414,7.414,0,0,1,0,10.03V7.454a7.389,7.389,0,0,1,2.122-5.5A7.5,7.5,0,0,1,7.44,0a7.473,7.473,0,0,1,5.306,1.952,7.4,7.4,0,0,1,2.12,5.5V10.03a7.42,7.42,0,0,1-2.12,5.516A7.466,7.466,0,0,1,7.44,17.5Zm0-15.085c-2.78,0-4.576,2.073-4.576,5.281V9.788A5.841,5.841,0,0,0,4.1,13.67,4.255,4.255,0,0,0,7.44,15.1c2.8,0,4.544-2.036,4.544-5.313V7.7A5.816,5.816,0,0,0,10.762,3.86,4.212,4.212,0,0,0,7.44,2.415Z" transform="translate(146.906 48.125)" fill="#fff"/>
    <path id="Fill_31" data-name="Fill 31" d="M1.228,12.525c.459,0,.8.225,1.376.917A5.2,5.2,0,0,0,6.746,15.23c2.211,0,3.6-.982,3.6-2.544,0-1.192-.883-2.093-2.39-2.447L4.684,9.5C1.687,8.823.246,7.341.246,4.958.246,1.948,2.7,0,6.534,0a8.326,8.326,0,0,1,4.519,1.223,3.219,3.219,0,0,1,1.67,2.431A1.092,1.092,0,0,1,11.528,4.8c-.508,0-.77-.161-1.457-.854A4.545,4.545,0,0,0,6.419,2.27c-2.112,0-3.406.949-3.406,2.511,0,1.223.8,1.964,2.522,2.382l3.193.757c3,.708,4.389,2.142,4.389,4.54,0,3.091-2.49,5.039-6.518,5.039a9.792,9.792,0,0,1-4.682-1.111A3.211,3.211,0,0,1,0,13.765a1.143,1.143,0,0,1,1.228-1.24" transform="translate(165.269 48.125)" fill="#fff"/>
    <g id="Group_35" data-name="Group 35" transform="translate(181.009 48.125)">
      <path id="Clip_34-2" data-name="Clip 34" d="M0,0H13.508V17.606H0Z" transform="translate(0.016 0.435)" fill="none"/>
      <g id="Group_35-2" data-name="Group 35" clip-path="url(#clip-path-3)">
        <path id="Fill_33" data-name="Fill 33" d="M5.65,17.606C2.271,17.606,0,15.5,0,12.364A4.6,4.6,0,0,1,1.62,8.687,6.921,6.921,0,0,1,6.095,7.334h4.58V5.679c0-2.166-1.322-3.31-3.822-3.31A4.285,4.285,0,0,0,3.361,4.04a1.556,1.556,0,0,1-1.285.617,1.045,1.045,0,0,1-1.1-1.1c0-.993.712-1.918,2.059-2.677a8.017,8.017,0,0,1,4-.876c4.175,0,6.474,2.011,6.474,5.663V15.95c0,.98-.5,1.542-1.384,1.542-.835,0-1.333-.538-1.367-1.476v-.958h-.115A5.629,5.629,0,0,1,5.65,17.606ZM6.243,9.59c-2.125,0-3.344.988-3.344,2.71,0,1.776,1.416,2.97,3.524,2.97a4.552,4.552,0,0,0,3.021-1.077,3.521,3.521,0,0,0,1.23-2.671V9.59Z" transform="translate(0.016 0.435)" fill="#fff"/>
      </g>
    </g>
  </g>
</svg>
