<svg id="Group_52" data-name="Group 52" xmlns="http://www.w3.org/2000/svg" xmlns:xlink="http://www.w3.org/1999/xlink" width="192.327" height="70" viewBox="0 0 192.327 70">
  <defs>
    <clipPath id="clip-path">
      <path id="Clip_34" data-name="Clip 34" d="M0,0H13.042V18.958H0Z" transform="translate(0.285 0.722)" fill="none"/>
    </clipPath>
  </defs>
  <path id="Fill_1" data-name="Fill 1" d="M0,10.33C0,3.884,3.276,0,8.717,0a8.446,8.446,0,0,1,6.169,2.354A6.094,6.094,0,0,1,16.79,6.289c0,.422-.225.685-.571.685-.295,0-.538-.228-.623-.614-.468-2.969-3.4-5.2-6.845-5.2-4.7,0-7.486,3.391-7.486,9.065v4.552c0,5.674,2.877,9.064,7.678,9.064,3.569,0,6.376-2.108,6.878-5.182.1-.387.295-.579.623-.579.347,0,.556.246.556.649a5.977,5.977,0,0,1-1.975,4.024A8.762,8.762,0,0,1,8.872,25C3.292,25,0,21.152,0,14.687Z" transform="translate(67 10)" fill="#003d79"/>
  <path id="Stroke_3" data-name="Stroke 3" d="M0,10.33C0,3.884,3.276,0,8.717,0a8.446,8.446,0,0,1,6.169,2.354A6.094,6.094,0,0,1,16.79,6.289c0,.422-.225.685-.571.685-.295,0-.538-.228-.623-.614-.468-2.969-3.4-5.2-6.845-5.2-4.7,0-7.486,3.391-7.486,9.065v4.552c0,5.674,2.877,9.064,7.678,9.064,3.569,0,6.376-2.108,6.878-5.182.1-.387.295-.579.623-.579.347,0,.556.246.556.649a5.977,5.977,0,0,1-1.975,4.024A8.762,8.762,0,0,1,8.872,25C3.292,25,0,21.152,0,14.687Z" transform="translate(67 10)" fill="none" stroke="#003d79" stroke-miterlimit="10" stroke-width="0.576"/>
  <path id="Fill_5" data-name="Fill 5" d="M.617,18A.6.6,0,0,1,0,17.338V.8A.592.592,0,0,1,.6.135.613.613,0,0,1,1.215.8V3.7h.018A4.96,4.96,0,0,1,6.373,0a3.54,3.54,0,0,1,1.2.135c.291.1.429.272.429.509a.463.463,0,0,1-.462.511c-.274.016-.617-.018-1.216-.018-2.707,0-5.107,1.8-5.107,5.921v10.28a.6.6,0,0,1-.6.662" transform="translate(89 16)" fill="#003d79"/>
  <path id="Stroke_7" data-name="Stroke 7" d="M.617,18A.6.6,0,0,1,0,17.338V.8A.592.592,0,0,1,.6.135.613.613,0,0,1,1.215.8V3.7h.018A4.96,4.96,0,0,1,6.373,0a3.54,3.54,0,0,1,1.2.135c.291.1.429.272.429.509a.463.463,0,0,1-.462.511c-.274.016-.617-.018-1.216-.018-2.707,0-5.107,1.8-5.107,5.921v10.28A.6.6,0,0,1,.617,18Z" transform="translate(89 16)" fill="none" stroke="#003d79" stroke-miterlimit="10" stroke-width="0.576"/>
  <path id="Fill_9" data-name="Fill 9" d="M7.324,18a7.046,7.046,0,0,1-5.4-2.055A8.323,8.323,0,0,1,0,10.085V8.135A8.9,8.9,0,0,1,1.947,2.063,6.59,6.59,0,0,1,7.008,0a6.587,6.587,0,0,1,5.047,2.05A8.817,8.817,0,0,1,14,8.084c0,.628-.309.959-.894.959H1.227V10.05a7.371,7.371,0,0,0,1.662,5.1A5.836,5.836,0,0,0,7.324,16.89,5.5,5.5,0,0,0,12.3,14.334l0,0,.051-.076c.274-.37.414-.472.648-.472a.543.543,0,0,1,.561.537,4.276,4.276,0,0,1-1.751,2.421A7.568,7.568,0,0,1,7.324,18ZM7.008,1.092c-3.566,0-5.782,2.6-5.782,6.79V7.95H12.756V7.882a7.538,7.538,0,0,0-1.573-5.008A5.326,5.326,0,0,0,7.008,1.092Z" transform="translate(100 16)" fill="#003d79"/>
  <path id="Stroke_11" data-name="Stroke 11" d="M7.324,18a7.046,7.046,0,0,1-5.4-2.055A8.323,8.323,0,0,1,0,10.085V8.135A8.9,8.9,0,0,1,1.947,2.063,6.59,6.59,0,0,1,7.008,0a6.587,6.587,0,0,1,5.047,2.05A8.817,8.817,0,0,1,14,8.084c0,.628-.309.959-.894.959H1.227V10.05a7.371,7.371,0,0,0,1.662,5.1A5.836,5.836,0,0,0,7.324,16.89,5.5,5.5,0,0,0,12.3,14.334l0,0,.051-.076c.274-.37.414-.472.648-.472a.543.543,0,0,1,.561.537,4.276,4.276,0,0,1-1.751,2.421A7.568,7.568,0,0,1,7.324,18ZM7.008,1.092c-3.566,0-5.782,2.6-5.782,6.79V7.95H12.756V7.882a7.538,7.538,0,0,0-1.573-5.008A5.326,5.326,0,0,0,7.008,1.092Z" transform="translate(100 16)" fill="none" stroke="#003d79" stroke-miterlimit="10" stroke-width="0.576"/>
  <path id="Fill_13" data-name="Fill 13" d="M6.766,25a6.541,6.541,0,0,1-4.843-1.994A7.726,7.726,0,0,1,0,17.588V14.054c0-5.132,3.416-7.43,6.8-7.43A6.392,6.392,0,0,1,10.966,8,5.553,5.553,0,0,1,12.7,10.45h.069V.67A.62.62,0,0,1,13.4,0a.6.6,0,0,1,.6.67V24.108a.593.593,0,0,1-.589.67.613.613,0,0,1-.622-.67V21.071h-.07a5.19,5.19,0,0,1-1.575,2.377A6.467,6.467,0,0,1,6.766,25ZM6.854,7.738a5.335,5.335,0,0,0-3.9,1.607,7.077,7.077,0,0,0-1.722,5.017v2.951a7.045,7.045,0,0,0,1.64,4.86,5.338,5.338,0,0,0,4,1.694,5.5,5.5,0,0,0,4.378-1.988,7.02,7.02,0,0,0,1.523-4.5V14.243a6.941,6.941,0,0,0-1.616-4.617A5.562,5.562,0,0,0,6.854,7.738Z" transform="translate(118 10)" fill="#003d79"/>
  <path id="Stroke_15" data-name="Stroke 15" d="M6.766,25a6.541,6.541,0,0,1-4.843-1.994A7.726,7.726,0,0,1,0,17.588V14.054c0-5.132,3.416-7.43,6.8-7.43A6.392,6.392,0,0,1,10.966,8,5.553,5.553,0,0,1,12.7,10.45h.069V.67A.62.62,0,0,1,13.4,0a.6.6,0,0,1,.6.67V24.108a.593.593,0,0,1-.589.67.613.613,0,0,1-.622-.67V21.071h-.07a5.19,5.19,0,0,1-1.575,2.377A6.467,6.467,0,0,1,6.766,25ZM6.854,7.738a5.335,5.335,0,0,0-3.9,1.607,7.077,7.077,0,0,0-1.722,5.017v2.951a7.045,7.045,0,0,0,1.64,4.86,5.338,5.338,0,0,0,4,1.694,5.5,5.5,0,0,0,4.378-1.988,7.02,7.02,0,0,0,1.523-4.5V14.243a6.941,6.941,0,0,0-1.616-4.617A5.562,5.562,0,0,0,6.854,7.738Z" transform="translate(118 10)" fill="none" stroke="#003d79" stroke-miterlimit="10" stroke-width="0.576"/>
  <path id="Fill_17" data-name="Fill 17" d="M1.008,24c-.324,0-.542-.272-.542-.676V6.441c0-.4.216-.675.526-.675s.541.278.541.675V23.324C1.534,23.735,1.327,24,1.008,24ZM.993,2.3A1.064,1.064,0,0,1,0,1.16,1.075,1.075,0,0,1,.993,0,1.068,1.068,0,0,1,2,1.16,1.07,1.07,0,0,1,.993,2.3Z" transform="translate(138 11)" fill="#003d79"/>
  <path id="Stroke_19" data-name="Stroke 19" d="M1.008,24c-.324,0-.542-.272-.542-.676V6.441c0-.4.216-.675.526-.675s.541.278.541.675V23.324C1.534,23.735,1.327,24,1.008,24ZM.993,2.3A1.064,1.064,0,0,1,0,1.16,1.075,1.075,0,0,1,.993,0,1.068,1.068,0,0,1,2,1.16,1.07,1.07,0,0,1,.993,2.3Z" transform="translate(138 11)" fill="none" stroke="#003d79" stroke-miterlimit="10" stroke-width="0.576"/>
  <path id="Fill_21" data-name="Fill 21" d="M0,23.316V1.122A.988.988,0,0,1,1.069,0H12.355A.585.585,0,0,1,13,.578a.586.586,0,0,1-.645.579H1.2v10.08H11.388a.6.6,0,0,1,.662.6.589.589,0,0,1-.662.56H1.2V23.316A.61.61,0,0,1,.611,24,.614.614,0,0,1,0,23.316" transform="translate(68 42)" fill="#003d79"/>
  <path id="Fill_23" data-name="Fill 23" d="M6.982,18a6.761,6.761,0,0,1-4.95-1.929A7.883,7.883,0,0,1,0,10.387V7.647A7.964,7.964,0,0,1,2.013,1.939,6.748,6.748,0,0,1,6.982,0a6.862,6.862,0,0,1,4.957,1.964A7.885,7.885,0,0,1,14,7.647v2.74a7.843,7.843,0,0,1-2.055,5.684A6.9,6.9,0,0,1,6.982,18Zm0-16.908A5.443,5.443,0,0,0,2.849,2.8a7.262,7.262,0,0,0-1.665,5.02v2.4a7.184,7.184,0,0,0,1.655,4.987A5.5,5.5,0,0,0,7,16.89a5.506,5.506,0,0,0,4.141-1.665,7.16,7.16,0,0,0,1.674-5.006v-2.4a7.219,7.219,0,0,0-1.681-5A5.477,5.477,0,0,0,6.982,1.092Z" transform="translate(84 48)" fill="#003d79"/>
  <path id="Fill_25" data-name="Fill 25" d="M.616,18A.6.6,0,0,1,0,17.338V.8A.592.592,0,0,1,.6.135.614.614,0,0,1,1.215.8V3.7h.017A4.964,4.964,0,0,1,6.373,0a3.549,3.549,0,0,1,1.2.135c.292.1.428.272.428.509a.463.463,0,0,1-.462.511c-.273.016-.616-.018-1.216-.018-2.707,0-5.106,1.8-5.106,5.921v10.28a.6.6,0,0,1-.6.662" transform="translate(104 48)" fill="#003d79"/>
  <path id="Fill_27" data-name="Fill 27" d="M22.393,18a.618.618,0,0,1-.626-.662V6.09c0-3.376-1.946-4.987-4.638-4.987a4.941,4.941,0,0,0-5,5.208V17.338a.618.618,0,1,1-1.233,0V6.159c0-3.241-1.806-5.056-4.655-5.056-3.3,0-5,2.528-5,5.513V17.338A.6.6,0,0,1,.626,18,.618.618,0,0,1,0,17.338V.866A.618.618,0,0,1,.626.2a.6.6,0,0,1,.608.662V3.393h.087A4.914,4.914,0,0,1,6.376,0C9.5,0,11.258,1.815,11.709,3.766H11.8A5.381,5.381,0,0,1,17.25,0C20.568,0,23,1.952,23,5.768v11.57a.6.6,0,0,1-.607.662" transform="translate(116 48)" fill="#003d79"/>
  <path id="Fill_29" data-name="Fill 29" d="M6.984,18a6.764,6.764,0,0,1-4.952-1.929A7.882,7.882,0,0,1,0,10.387V7.647A7.963,7.963,0,0,1,2.013,1.939,6.75,6.75,0,0,1,6.984,0a6.86,6.86,0,0,1,4.955,1.964A7.885,7.885,0,0,1,14,7.647v2.74a7.844,7.844,0,0,1-2.055,5.684A6.9,6.9,0,0,1,6.984,18Zm0-16.908A5.443,5.443,0,0,0,2.85,2.8a7.264,7.264,0,0,0-1.664,5.02v2.4A7.185,7.185,0,0,0,2.84,15.206,5.493,5.493,0,0,0,7,16.89a5.506,5.506,0,0,0,4.142-1.665,7.161,7.161,0,0,0,1.673-5.006v-2.4a7.22,7.22,0,0,0-1.681-5A5.474,5.474,0,0,0,6.984,1.092Z" transform="translate(144 48)" fill="#003d79"/>
  <path id="Fill_31" data-name="Fill 31" d="M.577,13.277c.3,0,.472.168.647.522a5.47,5.47,0,0,0,5.294,3.125c2.744,0,5.225-1.159,5.225-3.731,0-2.034-1.835-2.874-3.967-3.429L5.225,9.093C2.307,8.336.612,7.06.612,4.6.612,1.7,3.058,0,6.57,0a7.286,7.286,0,0,1,4,.992A4.04,4.04,0,0,1,12.6,3.95a.517.517,0,0,1-.542.537c-.367,0-.524-.184-.681-.5C10.922,2.521,9.524,1.076,6.57,1.076c-2.569,0-4.7,1.159-4.7,3.463,0,1.8,1.31,2.806,3.688,3.445l2.5.656C10.886,9.394,13,10.369,13,13.092,13,16.419,9.979,18,6.5,18a8.4,8.4,0,0,1-4.177-1.042A4.669,4.669,0,0,1,0,13.831a.54.54,0,0,1,.577-.554" transform="translate(163 48)" fill="#003d79"/>
  <g id="Group_35" data-name="Group 35" transform="translate(179 47)">
    <path id="Clip_34-2" data-name="Clip 34" d="M0,0H13.042V18.958H0Z" transform="translate(0.285 0.722)" fill="none"/>
    <g id="Group_35-2" data-name="Group 35" clip-path="url(#clip-path)">
      <path id="Fill_33" data-name="Fill 33" d="M5.9,18.958a6.18,6.18,0,0,1-4.286-1.489A5.2,5.2,0,0,1,0,13.523,4.738,4.738,0,0,1,1.615,9.749,6.937,6.937,0,0,1,6.126,8.391H11.8V5.718a4.4,4.4,0,0,0-1.282-3.379A5.2,5.2,0,0,0,6.863,1.15,5.121,5.121,0,0,0,2.02,3.982a.725.725,0,0,1-.668.444.53.53,0,0,1-.544-.585A4.313,4.313,0,0,1,2.827,1.062,7.076,7.076,0,0,1,6.881,0a6.735,6.735,0,0,1,4.541,1.434A5.2,5.2,0,0,1,13.042,5.47V18.02a.618.618,0,1,1-1.229,0V15.541h-.088C11.091,17.425,8.477,18.958,5.9,18.958Zm.247-9.434a5.557,5.557,0,0,0-3.58,1.022,3.553,3.553,0,0,0-1.249,2.908c0,2.6,1.9,4.354,4.723,4.354a5.966,5.966,0,0,0,4.109-1.547A5.171,5.171,0,0,0,11.8,12.443V9.524Z" transform="translate(0.285 0.722)" fill="#003d79"/>
    </g>
  </g>
  <path id="Fill_36" data-name="Fill 36" d="M10,33,.36,9.881A3.24,3.24,0,0,1,.272,7.1,3.169,3.169,0,0,1,2.466,5.358l22.2-5.3a3.449,3.449,0,0,1,2.719.658A3.551,3.551,0,0,1,28.752,3.2L30,15.4l-2.707.282-4.3,14.176c-.178.042-10.478,2.071-10.478,2.071Z" transform="translate(5 2)" fill="#8dc63f"/>
  <path id="Stroke_38" data-name="Stroke 38" d="M10,33,.36,9.881A3.24,3.24,0,0,1,.272,7.1,3.169,3.169,0,0,1,2.466,5.358l22.2-5.3a3.449,3.449,0,0,1,2.719.658A3.551,3.551,0,0,1,28.752,3.2L30,15.4l-2.707.282-4.3,14.176c-.178.042-10.478,2.071-10.478,2.071Z" transform="translate(5 2)" fill="none" stroke="#8dc63f" stroke-miterlimit="10" stroke-width="0.864"/>
  <path id="Fill_40" data-name="Fill 40" d="M11.336,37,.407,11.08a3.6,3.6,0,0,1-.1-3.118A3.593,3.593,0,0,1,2.795,6.006L27.951.061a3.955,3.955,0,0,1,4.635,3.523L34,17.269l-3.069.316L29.517,3.9a.913.913,0,0,0-.348-.645.881.881,0,0,0-.658-.163L3.5,9.007a.56.56,0,0,0-.393.246.575.575,0,0,0,.069.474l.05.107L14.179,35.8Z" transform="translate(2)" fill="#003d79"/>
  <path id="Fill_42" data-name="Fill 42" d="M39,29.411,26.456,1.575A2.335,2.335,0,0,0,23.274.2L1.109,11.079a1.993,1.993,0,0,0-.545,3.175L15.342,32" transform="translate(2 10)" fill="#00bce4"/>
  <path id="Fill_44" data-name="Fill 44" d="M0,.5H14" transform="translate(13 36)" fill="#fff"/>
  <path id="Fill_46" data-name="Fill 46" d="M13.638,33,.907,17.221a3.605,3.605,0,0,1,.955-5.549l.086-.047L24.25.337A3.942,3.942,0,0,1,27.412.325a3.9,3.9,0,0,1,2.11,2.353L34,14.475l-2.881,1.064-4.5-11.858a.884.884,0,0,0-.461-.577.8.8,0,0,0-.633,0L3.4,14.309a.646.646,0,0,0-.319.425.67.67,0,0,0,.19.541l.043.052L17.544,33Z" transform="translate(0 7)" fill="#003d79"/>
  <path id="Fill_48" data-name="Fill 48" d="M43.587,26.072H40.412l-.077-.767a19.8,19.8,0,0,0-.413-2.838l-.653-.857c-1.788-2.205-5.977-7.371-6.406-9.956L31.783,3.848A4.768,4.768,0,0,0,29.962.685a3.418,3.418,0,0,0-2.87-.6c-1.926.348-2.924,2.228-2.547,4.784l1.758,12.5a3.249,3.249,0,0,1-.11,1.886.334.334,0,0,1-.231.158,13.174,13.174,0,0,1-1.553.039H6.479A3.046,3.046,0,0,0,3.326,22.37v.579a3.118,3.118,0,0,0,3.153,2.994h5.258a.724.724,0,0,1,.77.666v.364a.735.735,0,0,1-.77.672l-8.277.007A3.5,3.5,0,0,0,0,31.013a3.441,3.441,0,0,0,3.46,3.329l8.277,0a.735.735,0,0,1,.77.669v.366a.735.735,0,0,1-.77.67l-5.52,0a3.329,3.329,0,1,0,0,6.653l5.52,0a.725.725,0,0,1,.77.67v.364a.734.734,0,0,1-.77.67H10.527a3.3,3.3,0,1,0,0,6.6H31.911c2.406,0,6.621-1.521,8.243-3.407l.257-.3h3.177c2.265,0,3.413-1.306,3.413-3.88V29.927c0-2.377-1.308-3.855-3.413-3.855" transform="translate(5 17)" fill="#e6e6e6"/>
  <path id="Fill_50" data-name="Fill 50" d="M33.815,56H12.677a5.653,5.653,0,0,1-5.691-5.6,5.53,5.53,0,0,1,.781-2.8,5.756,5.756,0,0,1-5.042-5.615,5.517,5.517,0,0,1,.988-3.138,5.652,5.652,0,0,1,.32-10.724,5.264,5.264,0,0,1-.745-2.689v-.584A5.324,5.324,0,0,1,8.675,19.6H25.946L24.287,7.548C23.729,3.688,25.48.7,28.645.122A6.987,6.987,0,0,1,29.9,0a5.377,5.377,0,0,1,3.307,1.123,7.077,7.077,0,0,1,2.722,4.723L37,13.681c.3,1.858,3.985,6.553,6.421,9.659l.118.151.1.122.068.139a10.055,10.055,0,0,1,.466,2.111c.023.15.045.288.064.407h1.128A5.3,5.3,0,0,1,49.5,28.085,6.65,6.65,0,0,1,51,32.46V46.051c0,2.5-1.5,6.215-5.643,6.215H43.214a13.6,13.6,0,0,1-4.677,2.739A14.856,14.856,0,0,1,33.815,56ZM12.677,47.637a2.736,2.736,0,1,0,0,5.468H33.815c2.245,0,6.242-1.49,7.708-3.228l.427-.5h3.407c.836,0,2.794,0,2.794-3.321V32.46c0-2.064-1.044-3.3-2.794-3.3H41.693l-.129-1.3a22.715,22.715,0,0,0-.376-2.719c-.142-.182-.33-.419-.548-.693-1.8-2.26-6.007-7.548-6.458-10.321L33.115,6.268A4.221,4.221,0,0,0,31.55,3.474a2.638,2.638,0,0,0-1.653-.58,4.073,4.073,0,0,0-.743.075c-1.9.35-2.3,2.379-2.047,4.161l1.732,12.559a3.952,3.952,0,0,1-.2,2.351.906.906,0,0,1-.6.4,8.548,8.548,0,0,1-1.169.054c-.263,0-.467,0-.476,0H8.675a2.453,2.453,0,0,0-2.537,2.353v.584a2.518,2.518,0,0,0,2.537,2.428h5.2a1.3,1.3,0,0,1,1.341,1.259v.369a1.306,1.306,0,0,1-1.341,1.264l-8.181.007a2.9,2.9,0,0,0-2.842,2.8A2.842,2.842,0,0,0,5.691,36.32h8.092l.089,0a1.306,1.306,0,0,1,1.341,1.264v.367a1.306,1.306,0,0,1-1.341,1.264l-5.457,0a2.765,2.765,0,1,0,0,5.529l5.457,0a1.306,1.306,0,0,1,1.341,1.264v.367a1.306,1.306,0,0,1-1.341,1.264Z" transform="translate(3 14)" fill="#003d79"/>
</svg>
