<svg xmlns="http://www.w3.org/2000/svg" width="40" height="40" viewBox="0 0 40 40">
  <g id="Facebook" transform="translate(0 0)">
    <path id="Fill_1" data-name="Fill 1" d="M20,40A20,20,0,1,1,40,20,20.022,20.022,0,0,1,20,40ZM14.483,15.6a.317.317,0,0,0-.316.317v3.715a.316.316,0,0,0,.316.316h2.252V32.278a.317.317,0,0,0,.317.316h4.5a.317.317,0,0,0,.317-.316V19.948h3.265a.317.317,0,0,0,.315-.29l.315-3.714a.317.317,0,0,0-.315-.344h-3.58V12.965a1.119,1.119,0,0,1,1.118-1.118h2.518a.317.317,0,0,0,.316-.317V7.816a.316.316,0,0,0-.316-.316H21.255a4.525,4.525,0,0,0-4.521,4.52V15.6Z" transform="translate(0 0)" fill="#fff"/>
  </g>
</svg>
