<svg xmlns="http://www.w3.org/2000/svg" width="40" height="38.4" viewBox="0 0 40 38.4">
  <g id="insta" transform="translate(0 -0.8)">
    <path id="Fill_1" data-name="Fill 1" d="M15.384,19.787H5.226A5.131,5.131,0,0,1,0,14.769V5.018A5.131,5.131,0,0,1,5.226,0H15.384a5.131,5.131,0,0,1,5.227,5.017v9.751A5.131,5.131,0,0,1,15.384,19.787ZM10.48,3.731A6.126,6.126,0,0,0,4.239,9.72a6.126,6.126,0,0,0,6.241,5.99,6.126,6.126,0,0,0,6.24-5.99A6.125,6.125,0,0,0,10.48,3.731Zm6.6-1.83A1.458,1.458,0,0,0,15.6,3.327a1.487,1.487,0,0,0,2.971,0A1.459,1.459,0,0,0,17.083,1.9Z" transform="translate(9.664 10.078)" fill="#505050"/>
    <path id="Fill_3" data-name="Fill 3" d="M4,0A3.925,3.925,0,0,0,0,3.838,3.925,3.925,0,0,0,4,7.675a3.924,3.924,0,0,0,4-3.838A3.924,3.924,0,0,0,4,0" transform="translate(16.147 15.96)" fill="#505050"/>
    <g id="Group_7" data-name="Group 7" transform="translate(0 0.741)">
      <path id="Fill_5" data-name="Fill 5" d="M20,38.4C8.972,38.4,0,29.787,0,19.2S8.972,0,20,0,40,8.613,40,19.2,31.028,38.4,20,38.4ZM14.777,6.879a7.472,7.472,0,0,0-7.611,7.306v9.971a7.472,7.472,0,0,0,7.611,7.307H25.163a7.472,7.472,0,0,0,7.61-7.307V14.185a7.471,7.471,0,0,0-7.61-7.306Z" transform="translate(0 0.059)" fill="#505050"/>
    </g>
  </g>
</svg>
