<?xml version="1.0" encoding="UTF-8"?>
<svg width="36px" height="50px" viewBox="0 0 36 50" version="1.1" xmlns="http://www.w3.org/2000/svg" xmlns:xlink="http://www.w3.org/1999/xlink">
    <title>location_on-24px</title>
    <g id="Home" stroke="none" stroke-width="1" fill="none" fill-rule="evenodd">
        <g id="HOME" transform="translate(-661.000000, -696.000000)">
            <g id="location_on-24px" transform="translate(661.000000, 696.000000)">
                <path d="M17.5,2.5 C21.6464286,2.5 25.396828,4.17611186 28.110358,6.88964195 C30.8238881,9.60317205 32.5,13.3535714 32.5,17.5 C32.5,27.310811 22.1303734,40.6861944 17.6560081,46.0079126 L17.524,46.163 L17.3473847,45.9511389 C16.9778224,45.5057751 16.5687181,45.0052412 16.1289329,44.4560494 L15.8614509,44.1207474 C14.795597,42.7795444 13.5689301,41.1748994 12.2978635,39.3920563 C10.422124,36.7610778 8.44739065,33.7399379 6.75629003,30.6052609 C4.36994917,26.1818648 2.5,21.5321582 2.5,17.5 C2.5,13.3535714 4.17611186,9.60317205 6.88964195,6.88964195 C9.60317205,4.17611186 13.3535714,2.5 17.5,2.5 Z" id="Shape" stroke="#FFFFFF" stroke-width="5" fill-rule="nonzero"></path>
                <path d="M17.7083333,21.875 C14.8333333,21.875 12.5,19.5416667 12.5,16.6666667 C12.5,13.7916667 14.8333333,11.4583333 17.7083333,11.4583333 C20.5833333,11.4583333 22.9166667,13.7916667 22.9166667,16.6666667 C22.9166667,19.5416667 20.5833333,21.875 17.7083333,21.875 Z" id="Path" fill="#FFFFFF"></path>
            </g>
        </g>
    </g>
</svg>