<svg xmlns="http://www.w3.org/2000/svg" width="35" height="50" viewBox="0 0 35 50">
  <g id="location_on-24px" transform="translate(0)">
    <g id="Shape" transform="translate(0)" fill="none" stroke-miterlimit="10">
      <path d="M17.5,0A17.487,17.487,0,0,0,0,17.5C0,30.625,17.5,50,17.5,50S35,30.625,35,17.5A17.487,17.487,0,0,0,17.5,0Z" stroke="none"/>
      <path d="M 17.5 5 C 14.15629005432129 5 11.01592636108398 6.29888916015625 8.657400131225586 8.657398223876953 C 6.298891067504883 11.01592636108398 5 14.15629196166992 5 17.5 C 5 21.78303718566895 7.779636383056641 28.2730541229248 12.82687187194824 35.77452850341797 C 14.45898056030273 38.20025253295898 16.10435485839844 40.4002685546875 17.4999942779541 42.17676544189453 C 18.89572906494141 40.40016174316406 20.54101943969727 38.20025253295898 22.17312622070312 35.77452850341797 C 27.22036361694336 28.2730541229248 30 21.78303718566895 30 17.5 C 30 14.15629196166992 28.70110893249512 11.01592636108398 26.34259986877441 8.657398223876953 C 23.98407363891602 6.29888916015625 20.84370803833008 5 17.5 5 M 17.5 0 C 27.17499923706055 0 35 7.825000762939453 35 17.5 C 35 30.625 17.5 50 17.5 50 C 17.5 50 0 30.625 0 17.5 C 0 7.825000762939453 7.825000762939453 0 17.5 0 Z" stroke="none" fill="#fff"/>
    </g>
    <path id="Path" d="M5.208,10.417a5.208,5.208,0,1,1,5.208-5.208A5.21,5.21,0,0,1,5.208,10.417Z" transform="translate(12.5 11.458)" fill="#fff"/>
  </g>
</svg>
