<svg xmlns="http://www.w3.org/2000/svg" width="39.63" height="38.414" viewBox="0 0 39.63 38.414">
  <g id="WA_outline_Copy" data-name="WA outline Copy" transform="translate(-0.048 -0.942)">
    <path id="Fill_1" data-name="Fill 1" d="M0,38.414v0L2.849,28.138A18.478,18.478,0,0,1,.388,18.973C.388,8.511,9.19,0,20.009,0S39.63,8.511,39.63,18.973s-8.8,18.973-19.621,18.973a20.162,20.162,0,0,1-9.328-2.3L0,38.413ZM11.212,31.8h0l.673.388a16.283,16.283,0,0,0,8.123,2.176A15.674,15.674,0,0,0,35.921,18.972,15.674,15.674,0,0,0,20.009,3.586,15.674,15.674,0,0,0,4.1,18.972,14.955,14.955,0,0,0,6.424,26.95l.411.655L5.246,33.342,11.212,31.8Zm13.722-4.377a8.9,8.9,0,0,1-2.759-.583l-.295-.1a16.527,16.527,0,0,1-3.368-1.549,18.836,18.836,0,0,1-5.4-4.847,20.518,20.518,0,0,1-1.245-1.832,9.931,9.931,0,0,1-1.193-2.657,5.142,5.142,0,0,1-.155-1.2,4.683,4.683,0,0,1,1.713-3.788A2.592,2.592,0,0,1,13.8,10.3a1.8,1.8,0,0,1,.873.213,4.29,4.29,0,0,1,1.479,2.047c.054.117.107.231.158.339a3.839,3.839,0,0,1,.517,2.143A3.72,3.72,0,0,1,15.8,16.709l-.131.148a.735.735,0,0,0-.1,1.028,12.69,12.69,0,0,0,6.351,5.261,1.032,1.032,0,0,0,.374.08.67.67,0,0,0,.532-.27,6.564,6.564,0,0,0,.446-.64A3.2,3.2,0,0,1,24.5,21a1.894,1.894,0,0,1,.7-.129,4.476,4.476,0,0,1,2.112.741c.118.068.248.138.385.213.739.4,1.658.9,1.828,1.656a2.147,2.147,0,0,1-.165,1.3,5.072,5.072,0,0,1-4.421,2.635Z" transform="translate(0.048 0.942)" fill="#fff"/>
  </g>
</svg>
