<svg xmlns="http://www.w3.org/2000/svg" width="39.721" height="38.408" viewBox="0 0 39.721 38.408">
  <g id="Group_6_Copy_2" data-name="Group 6 Copy 2" transform="translate(0 -0.531)">
    <path id="Fill_1" data-name="Fill 1" d="M8.478,16.4a8.677,8.677,0,0,1-4.328-1.16l-.358-.206-3.179.824L1.46,12.8l-.22-.349A7.968,7.968,0,0,1,0,8.2,8.351,8.351,0,0,1,8.478,0a8.351,8.351,0,0,1,8.479,8.2A8.352,8.352,0,0,1,8.478,16.4ZM5.17,3.579a1.382,1.382,0,0,0-.834.3A2.494,2.494,0,0,0,3.424,5.9a2.742,2.742,0,0,0,.083.641,5.112,5.112,0,0,0,.635,1.415,10.675,10.675,0,0,0,.663.976,10.018,10.018,0,0,0,2.876,2.583,8.761,8.761,0,0,0,1.795.825l.149.048.008,0A4.744,4.744,0,0,0,11.1,12.7a2.7,2.7,0,0,0,2.355-1.4,1.148,1.148,0,0,0,.087-.695c-.09-.4-.579-.669-.972-.882-.073-.04-.143-.077-.206-.114a2.389,2.389,0,0,0-1.125-.395,1.007,1.007,0,0,0-.372.069,1.7,1.7,0,0,0-.651.7,3.51,3.51,0,0,1-.238.341.356.356,0,0,1-.283.144.551.551,0,0,1-.2-.043,6.761,6.761,0,0,1-3.384-2.8.392.392,0,0,1,.052-.547L6.231,7a2,2,0,0,0,.551-.893,2.048,2.048,0,0,0-.275-1.142c-.028-.058-.056-.119-.085-.182a2.28,2.28,0,0,0-.787-1.088A.957.957,0,0,0,5.17,3.579Z" transform="translate(11.208 11.413)" fill="#fff"/>
    <g id="Group_5" data-name="Group 5" transform="translate(0 0.149)">
      <path id="Fill_3" data-name="Fill 3" d="M19.86,38.408A20.32,20.32,0,0,1,12.13,36.9a19.846,19.846,0,0,1-6.313-4.116,19.118,19.118,0,0,1-4.256-6.1,18.682,18.682,0,0,1,0-14.951,19.118,19.118,0,0,1,4.256-6.1A19.845,19.845,0,0,1,12.13,1.509a20.554,20.554,0,0,1,15.461,0A19.845,19.845,0,0,1,33.9,5.625a19.118,19.118,0,0,1,4.256,6.1,18.682,18.682,0,0,1,0,14.951,19.118,19.118,0,0,1-4.256,6.1A19.846,19.846,0,0,1,27.591,36.9,20.32,20.32,0,0,1,19.86,38.408ZM19.687,8.971A10.3,10.3,0,0,0,9.232,19.08a9.849,9.849,0,0,0,1.31,4.883L9.025,29.438l5.691-1.474a10.75,10.75,0,0,0,4.971,1.225A10.3,10.3,0,0,0,30.14,19.08,10.3,10.3,0,0,0,19.687,8.971Z" transform="translate(0 0.382)" fill="#fff"/>
    </g>
  </g>
</svg>
